#!OML:ASF H:\Pregnant\Project 1\Capture day 1\Session 1\femalepreg.ASF
:FULLY-SPECIFIED
:DEGREES
480
root 4.5055 2.701 29.9635 54.9906 3.48815 285.445
lowerback 12.6548 7.79376 8.60382
upperback -1.94834 12.6463 7.95958
thorax -9.22006 5.90846 1.29294
lowerneck -16.0713 -0.591951 -1.55852
upperneck 30.1887 -8.38946 23.5491
head 14.5239 -1.27985 8.64912
rclavicle -5.40694e-014 -5.08889e-014
rhumerus -49.9306 82.4326 -125.975
rradius 89.3894
rwrist 12.9271
rhand -53.8606 5.69635
rfingers 7.12502
rthumb -26.2899 337.498
lclavicle -5.40694e-014 -5.08889e-014
lhumerus 31.564 -41.2387 61.3687
lradius 84.4649
lwrist 27.5978
lhand -11.7644 15.0586
lfingers 7.12502
lthumb 14.284 44.5473
rfemur -54.5406 -0.389798 19.8041
rtibia 101.503
rfoot 33.0953 12.9445
rtoes 21.6391
lfemur -56.4364 -29.3864 -44.1954
ltibia 131.953
lfoot -8.02857 -24.152
ltoes -70.5041
481
root 4.49658 2.71134 29.9544 54.9754 3.30682 285.596
lowerback 12.8922 7.78707 8.60079
upperback -1.8421 12.6575 8.02174
thorax -9.25404 5.91043 1.33008
lowerneck -16.1621 -0.598335 -1.58848
upperneck 30.1541 -8.39051 23.5416
head 14.5301 -1.28023 8.64952
rclavicle -1.08139e-013 -8.90555e-014
rhumerus -49.6704 82.7305 -125.95
rradius 89.1924
rwrist 12.9596
rhand -53.7469 6.0924
rfingers 7.12502
rthumb -26.181 337.878
lclavicle -1.08139e-013 -8.90555e-014
lhumerus 31.3672 -40.9247 61.2487
lradius 84.9841
lwrist 27.461
lhand -11.7183 15.0118
lfingers 7.12502
lthumb 14.3285 44.4974
rfemur -54.7275 -0.268063 19.7272
rtibia 101.81
rfoot 33.254 13.0237
rtoes 21.6642
lfemur -56.4885 -29.3727 -44.3645
ltibia 131.953
lfoot -8.05516 -24.2385
ltoes -70.4982
482
root 4.48771 2.72189 29.9448 54.9602 3.11662 285.751
lowerback 13.1382 7.78105 8.59069
upperback -1.73528 12.6691 8.08113
thorax -9.2929 5.91253 1.36672
lowerneck -16.2421 -0.601734 -1.61267
upperneck 30.1013 -8.38352 23.5333
head 14.5235 -1.2776 8.6468
rclavicle -3.18055e-014 -3.18055e-015
rhumerus -49.3921 83.0262 -125.913
rradius 88.9813
rwrist 12.9981
rhand -53.6914 6.44044
rfingers 7.12502
rthumb -26.1279 338.218
lclavicle -3.18055e-014 -3.18055e-015
lhumerus 31.169 -40.6025 61.1392
lradius 85.5029
lwrist 27.4028
lhand -11.6694 14.9845
lfingers 7.12502
lthumb 14.3756 44.4668
rfemur -54.9228 -0.129751 19.6449
rtibia 102.111
rfoot 33.3998 13.104
rtoes 21.6364
lfemur -56.5465 -29.3569 -44.54
ltibia 131.954
lfoot -8.08144 -24.3279
ltoes -70.4921
483
root 4.47883 2.73265 29.9346 54.9486 2.91635 285.91
lowerback 13.3894 7.77593 8.57174
upperback -1.62954 12.6809 8.13686
thorax -9.33676 5.9147 1.40322
lowerneck -16.3118 -0.601655 -1.62977
upperneck 30.0338 -8.36839 23.5222
head 14.5054 -1.27183 8.64028
rclavicle 2.22639e-014 0
rhumerus -49.1256 83.3241 -125.896
rradius 88.7586
rwrist 13.041
rhand -53.697 6.7646
rfingers 7.12502
rthumb -26.1332 338.543
lclavicle 2.22639e-014 0
lhumerus 30.9722 -40.2711 61.0371
lradius 86.0226
lwrist 27.4116
lhand -11.6023 14.9905
lfingers 7.12502
lthumb 14.4402 44.4681
rfemur -55.1316 0.0275778 19.555
rtibia 102.407
rfoot 33.5321 13.1885
rtoes 21.5567
lfemur -56.6152 -29.3408 -44.7217
ltibia 131.957
lfoot -8.10689 -24.4205
ltoes -70.4858
484
root 4.46986 2.7436 29.9239 54.9453 2.70565 286.074
lowerback 13.6398 7.77215 8.5432
upperback -1.52595 12.6924 8.18769
thorax -9.38314 5.91697 1.43956
lowerneck -16.3752 -0.598112 -1.63886
upperneck 29.9582 -8.34684 23.5072
head 14.4802 -1.26328 8.62996
rclavicle -6.67916e-014 4.13472e-014
rhumerus -48.8857 83.628 -125.913
rradius 88.5281
rwrist 13.0862
rhand -53.7569 7.09212
rfingers 7.12502
rthumb -26.1906 338.879
lclavicle -6.67916e-014 4.13472e-014
lhumerus 30.7816 -39.9297 60.9379
lradius 86.5444
lwrist 27.4685
lhand -11.5057 15.0368
lfingers 7.12502
lthumb 14.5333 44.5078
rfemur -55.3603 0.2054 19.4566
rtibia 102.701
rfoot 33.6521 13.2789
rtoes 21.4466
lfemur -56.7009 -29.328 -44.9089
ltibia 131.963
lfoot -8.12992 -24.5163
ltoes -70.4794
485
root 4.46075 2.75468 29.9125 54.9549 2.48433 286.242
lowerback 13.8818 7.77023 8.50402
upperback -1.42524 12.7032 8.23244
thorax -9.42846 5.91936 1.47617
lowerneck -16.4381 -0.591481 -1.63906
upperneck 29.883 -8.32174 23.4868
head 14.4537 -1.25266 8.61595
rclavicle 9.22361e-014 -2.22639e-014
rhumerus -48.6799 83.9407 -125.971
rradius 88.2934
rwrist 13.1321
rhand -53.858 7.44466
rfingers 7.12502
rthumb -26.2873 339.246
lclavicle 9.22361e-014 -2.22639e-014
lhumerus 30.6009 -39.5782 60.8374
lradius 87.0692
lwrist 27.5507
lhand -11.3734 15.1229
lfingers 7.12502
lthumb 14.6608 44.5846
rfemur -55.6157 0.403853 19.3487
rtibia 102.995
rfoot 33.7629 13.3756
rtoes 21.3429
lfemur -56.8093 -29.3231 -45.101
ltibia 131.974
lfoot -8.14833 -24.6149
ltoes -70.4728
486
root 4.45141 2.76585 29.9005 54.9812 2.25303 286.416
lowerback 14.1086 7.77049 8.45401
upperback -1.3276 12.7125 8.27043
thorax -9.46891 5.92182 1.51353
lowerneck -16.5069 -0.582514 -1.63061
upperneck 29.8172 -8.29677 23.4612
head 14.4324 -1.241 8.59926
rclavicle 2.8625e-014 1.01778e-013
rhumerus -48.5071 84.2633 -126.068
rradius 88.057
rwrist 13.1791
rhand -53.9854 7.83161
rfingers 7.12502
rthumb -26.4094 339.651
lclavicle 2.8625e-014 1.01778e-013
lhumerus 30.4316 -39.2168 60.7328
lradius 87.5968
lwrist 27.6351
lhand -11.2077 15.2391
lfingers 7.12502
lthumb 14.8204 44.6891
rfemur -55.9023 0.621918 19.2317
rtibia 103.289
rfoot 33.8685 13.4771
rtoes 21.2852
lfemur -56.9447 -29.3303 -45.2977
ltibia 131.991
lfoot -8.1599 -24.7157
ltoes -70.4661
487
root 4.44182 2.77703 29.8878 55.0258 2.01238 286.593
lowerback 14.3152 7.77303 8.39225
upperback -1.23285 12.7196 8.30201
thorax -9.50166 5.92427 1.55333
lowerneck -16.5863 -0.572093 -1.61523
upperneck 29.767 -8.27521 23.4324
head 14.4211 -1.22934 8.58159
rclavicle -7.95139e-014 -9.22361e-014
rhumerus -48.3667 84.5953 -126.202
rradius 87.8202
rwrist 13.2299
rhand -54.1262 8.25019
rfingers 7.12502
rthumb -26.5442 340.09
lclavicle -7.95139e-014 -9.22361e-014
lhumerus 30.2711 -38.8458 60.6238
lradius 88.1262
lwrist 27.703
lhand -11.0179 15.3687
lfingers 7.12502
lthumb 15.0033 44.8051
rfemur -56.2219 0.857386 19.1065
rtibia 103.585
rfoot 33.9734 13.5808
rtoes 21.3083
lfemur -57.108 -29.3522 -45.4989
ltibia 132.015
lfoot -8.16286 -24.8175
ltoes -70.4593
488
root 4.43195 2.78818 29.8745 55.0883 1.76263 286.775
lowerback 14.4996 7.77783 8.31738
upperback -1.14042 12.724 8.32822
thorax -9.52568 5.9267 1.59773
lowerneck -16.6782 -0.561121 -1.59526
upperneck 29.7351 -8.25929 23.4027
head 14.4223 -1.21854 8.56463
rclavicle -1.27222e-013 2.54444e-014
rhumerus -48.2605 84.9351 -126.372
rradius 87.5837
rwrist 13.287
rhand -54.2727 8.68895
rfingers 7.12502
rthumb -26.6844 340.55
lclavicle -1.27222e-013 2.54444e-014
lhumerus 30.1132 -38.4659 60.5125
lradius 88.6559
lwrist 27.7443
lhand -10.822 15.4917
lfingers 7.12502
lthumb 15.1919 44.914
rfemur -56.5731 1.1071 18.9737
rtibia 103.881
rfoot 34.0812 13.6829
rtoes 21.4334
lfemur -57.2972 -29.389 -45.7049
ltibia 132.044
lfoot -8.15642 -24.9193
ltoes -70.4524
489
root 4.42184 2.79928 29.8607 55.1656 1.50394 286.959
lowerback 14.6637 7.78485 8.2284
upperback -1.04918 12.7257 8.35084
thorax -9.54127 5.9292 1.64897
lowerneck -16.7812 -0.550499 -1.5742
upperneck 29.7184 -8.24985 23.3762
head 14.4348 -1.20919 8.55036
rclavicle 4.45278e-014 -8.90555e-014
rhumerus -48.1799 85.2798 -126.569
rradius 87.3477
rwrist 13.3507
rhand -54.4208 9.13703
rfingers 7.12502
rthumb -26.8261 341.02
lclavicle 4.45278e-014 -8.90555e-014
lhumerus 29.9504 -38.0772 60.4025
lradius 89.1836
lwrist 27.7575
lhand -10.6403 15.5897
lfingers 7.12502
lthumb 15.367 44.9987
rfemur -56.9507 1.36723 18.8345
rtibia 104.176
rfoot 34.1938 13.78
rtoes 21.6635
lfemur -57.507 -29.4381 -45.9166
ltibia 132.079
lfoot -8.14092 -25.0201
ltoes -70.4454
490
root 4.41157 2.81031 29.8463 55.2532 1.23595 287.144
lowerback 14.8112 7.79429 8.12444
upperback -0.957683 12.7254 8.37178
thorax -9.54985 5.93208 1.70887
lowerneck -16.8911 -0.541017 -1.55495
upperneck 29.7101 -8.24628 23.3559
head 14.4546 -1.20152 8.53982
rclavicle -8.5875e-014 -6.36111e-015
rhumerus -48.0986 85.6256 -126.764
rradius 87.1127
rwrist 13.418
rhand -54.5695 9.58841
rfingers 7.12502
rthumb -26.9683 341.493
lclavicle -8.5875e-014 -6.36111e-015
lhumerus 29.775 -37.6802 60.2984
lradius 89.7064
lwrist 27.7502
lhand -10.4948 15.6493
lfingers 7.12502
lthumb 15.5071 45.0475
rfemur -57.3479 1.6332 18.6895
rtibia 104.468
rfoot 34.3107 13.8692
rtoes 21.9819
lfemur -57.731 -29.4951 -46.1347
ltibia 132.117
lfoot -8.11759 -25.119
ltoes -70.4383
491
root 4.40122 2.82127 29.8316 55.346 0.958224 287.329
lowerback 14.9479 7.80664 8.00574
upperback -0.864232 12.7245 8.39281
thorax -9.5531 5.93587 1.77824
lowerneck -17.0031 -0.5334 -1.53911
upperneck 29.7015 -8.24704 23.3425
head 14.4765 -1.19549 8.53262
rclavicle -5.08889e-014 -4.45278e-014
rhumerus -47.9569 85.9693 -126.896
rradius 86.8801
rwrist 13.4808
rhand -54.7185 10.0471
rfingers 7.12502
rthumb -27.1109 341.974
lclavicle -5.08889e-014 -4.45278e-014
lhumerus 29.5825 -37.2747 60.2041
lradius 90.2205
lwrist 27.7358
lhand -10.4049 15.6647
lfingers 7.12502
lthumb 15.5937 45.0561
rfemur -57.7571 1.89994 18.5392
rtibia 104.754
rfoot 34.4273 13.9501
rtoes 22.3501
lfemur -57.962 -29.5544 -46.3603
ltibia 132.156
lfoot -8.08816 -25.2154
ltoes -70.431
492
root 4.39089 2.83213 29.8164 55.4392 0.670568 287.511
lowerback 15.0794 7.82257 7.87384
upperback -0.76719 12.7248 8.41526
thorax -9.55248 5.9412 1.85665
lowerneck -17.1131 -0.528077 -1.52604
upperneck 29.6844 -8.24984 23.3333
head 14.4948 -1.1907 8.52649
rclavicle 2.44903e-013 6.36111e-014
rhumerus -47.6548 86.3075 -126.864
rradius 86.6515
rwrist 13.529
rhand -54.8661 10.525
rfingers 7.12502
rthumb -27.252 342.474
lclavicle 2.44903e-013 6.36111e-014
lhumerus 29.372 -36.8608 60.1221
lradius 90.7213
lwrist 27.7287
lhand -10.3846 15.6379
lfingers 7.12502
lthumb 15.6133 45.0278
rfemur -58.1711 2.16177 18.3845
rtibia 105.033
rfoot 34.5348 14.025
rtoes 22.7155
lfemur -58.1944 -29.611 -46.5936
ltibia 132.195
lfoot -8.05424 -25.3088
ltoes -70.4236
